<svg width="286" height="67" viewBox="0 0 286 67" fill="none" xmlns="http://www.w3.org/2000/svg">
<path fill-rule="evenodd" clip-rule="evenodd" d="M260.21 2.502C259.308 3.878 258.803 5.891 259.086 6.975C259.577 8.852 259.459 8.873 256.653 7.422C255.03 6.583 252.825 6.176 251.752 6.516C249.223 7.319 247.492 10.608 248.159 13.343C248.449 14.529 248.037 16.374 247.244 17.441C245.176 20.227 245.457 22.327 248.252 24.952C249.92 26.519 251.498 27.1 253.201 26.775C255.671 26.302 255.683 26.332 254.171 29.256C251.365 34.681 254.833 39.271 260.599 37.764C261.568 37.51 262.929 37.909 263.622 38.651C265.334 40.485 268.76 40.349 270.957 38.361C272.692 36.79 272.754 37.051 272.45 44.619C272.276 48.962 271.567 53.573 270.875 54.865C269.919 56.651 269.897 57.489 270.781 58.357C273.762 61.284 277.589 50.432 276.357 42.547C274.605 31.331 274.517 32.223 277.318 32.758C280.912 33.445 284.087 30.388 283.554 26.754C283.323 25.184 283.726 23.479 284.473 22.859C286.327 21.32 286.134 16.474 284.141 14.481C283.064 13.403 281.337 12.952 279.232 13.198C276.156 13.557 276.06 13.471 277.394 11.566C280.755 6.768 277.017 -0.155 271.936 1.458C270.855 1.801 269.682 1.613 269.328 1.041C268.974 0.468 267.147 0 265.267 0C262.724 0 261.429 0.639999 260.21 2.502ZM268.151 3.086C269.383 4.846 269.95 4.992 271.771 4.017C273.416 3.137 274.273 3.146 275.367 4.053C278.062 6.29 277.029 10.095 272.576 14.331C269.951 16.828 269.098 18.112 270.326 17.72C281.382 14.183 283.803 14.295 283.803 18.346C283.803 19.671 283.161 21.288 282.376 21.939C281.418 22.734 281.13 24.238 281.499 26.512C281.988 29.526 281.762 29.972 279.46 30.55C277.624 31.011 276.097 30.59 274.203 29.1C270.401 26.109 269.694 26.463 270.418 30.995C271.118 35.373 269.763 38 266.803 38C265.838 38 264.515 37.358 263.864 36.573C263.08 35.629 261.566 35.326 259.389 35.68C256.889 36.085 255.942 35.806 255.447 34.516C254.529 32.122 257.516 26.34 260.926 23.912C265.622 20.568 264.21 19.924 258.208 22.672C253.62 24.773 252.179 25.037 250.208 24.138C247.488 22.899 247.052 19.868 249.322 17.984C250.39 17.098 250.659 15.749 250.227 13.448C249.727 10.78 250.001 9.964 251.708 9.051C254.394 7.613 257.131 8.94 261.633 13.86C263.738 16.16 264.699 16.764 264.244 15.5C263.848 14.4 262.799 11.553 261.913 9.172C260.331 4.919 260.344 4.811 262.664 2.922C265.648 0.491997 266.348 0.512999 268.151 3.086ZM173.803 36.545C173.803 52.779 173.849 53.137 176.258 55.545C178.821 58.109 184.308 59.015 183.553 56.75C183.325 56.063 182.275 55.35 181.22 55.166C177.303 54.482 176.803 52.291 176.803 35.809C176.803 22.423 176.573 20 175.303 20C174.03 20 173.803 22.505 173.803 36.545ZM185.803 39C185.803 55.222 186.022 58 187.303 58C188.516 58 188.803 56.408 188.803 49.674C188.803 42.265 189.058 41.109 191.117 39.174C194.392 36.098 199.109 36.302 201.73 39.635C203.428 41.793 203.803 43.692 203.803 50.135C203.803 56.459 204.097 58 205.303 58C206.52 58 206.803 56.378 206.803 49.4C206.803 40.953 206.743 40.74 203.403 37.4C199.573 33.57 194.863 32.869 191.026 35.557L188.803 37.113V28.557C188.803 21.617 188.519 20 187.303 20C186.022 20 185.803 22.778 185.803 39ZM79.803 38.771C79.803 52.179 79.8961 52.808 82.2551 55.354C84.9581 58.27 89.803 59.006 89.803 56.5C89.803 55.675 88.973 55 87.958 55C84.331 55 82.803 51.811 82.803 44.241V37.139L86.053 37.32C90.533 37.568 90.584 34.624 86.108 34.191C83.14 33.904 82.89 33.588 82.608 29.768C82.44 27.506 81.741 25.47 81.053 25.244C80.093 24.929 79.803 28.068 79.803 38.771ZM140.186 26.611C135.599 28.833 134.803 31.635 134.803 45.547C134.803 55.95 135.05 58 136.303 58C137.386 58 137.803 56.889 137.803 54C137.803 50.095 137.886 50 141.303 50C143.747 50 144.803 49.548 144.803 48.5C144.803 47.452 143.747 47 141.303 47H137.803V40.223C137.803 33.249 139.506 29 142.301 29C144.094 29 145.277 27.074 144.166 25.963C143.682 25.48 141.932 25.765 140.186 26.611ZM5.67605 35.684C-2.01095 40.454 -1.85795 52.9 5.93905 57.073C9.13805 58.785 15.307 58.555 18.27 56.613L20.803 54.954V60.977C20.803 65.664 21.136 67 22.303 67C23.576 67 23.803 64.5 23.803 50.5C23.803 36.5 23.576 34 22.303 34C21.419 34 20.797 34.923 20.788 36.25C20.779 37.544 20.46 38.032 20.038 37.4C17.691 33.885 10.046 32.972 5.67605 35.684ZM27.8071 42.25C27.8111 52.105 29.701 56.151 35.14 57.946C37.95 58.874 39.331 58.806 42.217 57.6C44.189 56.776 45.803 56.529 45.803 57.051C45.803 57.573 46.478 58 47.303 58C48.553 58 48.803 56 48.803 46C48.803 36 48.553 34 47.303 34C46.09 34 45.803 35.592 45.803 42.326C45.803 49.735 45.548 50.891 43.489 52.826C40.214 55.902 35.497 55.698 32.876 52.365C31.178 50.207 30.803 48.308 30.803 41.865C30.803 35.541 30.509 34 29.303 34C28.091 34 27.8041 35.582 27.8071 42.25ZM57.566 35.565C51.536 38.837 49.8461 48.521 54.3671 53.894C58.5351 58.847 66.703 59.818 71.4 55.92C72.506 55.002 72.803 55.099 72.803 56.378C72.803 57.27 73.478 58 74.303 58C75.553 58 75.803 56 75.803 46C75.803 36 75.553 34 74.303 34C73.419 34 72.797 34.923 72.788 36.25C72.779 37.544 72.46 38.032 72.038 37.4C69.736 33.952 62.28 33.007 57.566 35.565ZM91.803 46C91.803 56 92.053 58 93.303 58C94.516 58 94.803 56.414 94.803 49.723C94.803 37.827 97.248 35.116 104.98 38.438C106.318 39.012 106.546 38.735 106.111 37.068C105.429 34.46 101.357 33.352 97.627 34.76C96.035 35.361 94.803 35.428 94.803 34.913C94.803 34.411 94.128 34 93.303 34C92.053 34 91.803 36 91.803 46ZM112.701 36.285C104.213 41.992 106.666 55.081 116.791 58.115C126.646 61.067 135.229 49.526 130.286 39.967C127.204 34.006 118.729 32.232 112.701 36.285ZM151.137 36.372C144.961 41.569 144.321 49.248 149.641 54.345C154.803 59.291 161.498 59.514 166.405 54.904C174.282 47.504 169.929 35.295 159.04 34.249C154.921 33.853 153.76 34.165 151.137 36.372ZM215.117 35.95C211.134 38.379 209.53 41.308 209.53 46.156C209.53 55.345 219.9 61.442 227.291 56.6C230.313 54.62 230.803 54.606 230.803 56.5C230.803 57.325 231.478 58 232.303 58C233.553 58 233.803 56 233.803 46C233.803 36 233.553 34 232.303 34C231.452 34 230.803 34.897 230.803 36.073V38.145L228.168 36.073C224.829 33.446 219.309 33.394 215.117 35.95ZM239.458 35.829C236.937 38.614 237.448 40.643 241.444 43.707C249.193 49.652 249.674 50.427 247.475 53.434C245.559 56.054 240.89 55.757 238.674 52.875L236.847 50.5L236.825 53.215C236.783 58.351 245.012 59.882 249.348 55.545C253.521 51.372 251.988 47.036 244.717 42.446C242.564 41.087 240.803 39.516 240.803 38.956C240.803 37.281 243.933 36.6 245.922 37.842C248.441 39.415 248.852 39.303 248.095 37.25C246.745 33.591 242.165 32.837 239.458 35.829ZM18.167 39.636C23.959 45.429 20.157 55.036 12.098 54.968C3.54305 54.897 -0.261951 45.912 5.72605 39.923C9.59805 36.051 14.469 35.939 18.167 39.636ZM69.8801 39.923C75.8561 45.899 72.189 55 63.805 55C58.387 55 54.803 51.603 54.803 46.469C54.803 41.685 59.257 37 63.803 37C65.955 37 67.8851 37.928 69.8801 39.923ZM125.88 39.923C129.147 43.19 129.595 46.568 127.34 50.928C125.657 54.184 124.02 55 119.176 55C111.134 55 107.642 44.838 113.88 39.589C118.047 36.082 122.153 36.197 125.88 39.923ZM162.953 38.08C165.578 39.485 167.759 44.779 167.111 48.171C166.329 52.262 162.589 55.2 158.166 55.2C155.15 55.2 153.777 54.536 151.478 51.963C149.058 49.254 148.68 48.136 149.161 45.113C150.192 38.628 157.251 35.029 162.953 38.08ZM227.88 39.923C234.493 46.536 228.401 57.353 219.446 54.899C214.66 53.587 212.803 51.183 212.803 46.297C212.803 37.618 221.78 33.823 227.88 39.923ZM274.496 50.731C274.242 51.704 274.018 51.15 273.998 49.5C273.978 47.85 274.185 47.054 274.459 47.731C274.733 48.408 274.75 49.758 274.496 50.731ZM272.971 56.232C272.229 56.974 272.099 56.583 272.534 54.92C272.888 53.568 273.341 53.114 273.591 53.863C273.831 54.585 273.553 55.65 272.971 56.232Z" fill="#115E36"/>
</svg>
